<?xml version="1.0" encoding="utf-8"?>
<!-- Generator: Adobe Illustrator 24.1.0, SVG Export Plug-In . SVG Version: 6.00 Build 0)  -->
<svg version="1.1" id="Layer_1" xmlns="http://www.w3.org/2000/svg" xmlns:xlink="http://www.w3.org/1999/xlink" x="0px" y="0px"
	 viewBox="0 0 118.6 117.93" style="enable-background:new 0 0 118.6 117.93;" xml:space="preserve">
<style type="text/css">
	.st0{opacity:0.1;fill:#834299;}
	.st1{opacity:0.38;}
	.st2{fill:#78459B;}
	.st3{fill:#73439A;}
	.st4{fill:#DA883E;}
	.st5{fill:#F6BE70;}
	.st6{fill:#9C3092;}
	.st7{fill:#D6764A;}
	.st8{fill:#CA4B58;}
	.st9{fill:#CE5D50;}
	.st10{fill:#DD8C4E;}
	.st11{fill:#823B96;}
	.st12{fill:#D16854;}
	.st13{fill:#A13995;}
	.st14{fill:#C03C63;}
	.st15{fill:#DD8FBD;}
	.st16{fill:#8A3E97;}
	.st17{fill:#D97760;}
	.st18{fill:#F3AA79;}
	.st19{fill:#AB2F7D;}
	.st20{fill:#B73371;}
	.st21{fill:#C13C64;}
	.st22{fill:#EA8B84;}
	.st23{fill:#E990B9;}
	.st24{fill:#E17F99;}
	.st25{fill:#D5724A;}
	.st26{fill:#764299;}
	.st27{fill:#813D97;}
	.st28{fill:#993092;}
	.st29{fill:#D77D48;}
	.st30{fill:#A72F84;}
	.st31{fill:#CE5757;}
	.st32{fill:#77449A;}
	.st33{fill:#D16650;}
	.st34{fill:#DC92BF;}
	.st35{fill:#B53373;}
	.st36{fill:#F09592;}
	.st37{fill:#C7475D;}
	.st38{fill:#F4A187;}
	.st39{fill:#C03E69;}
	.st40{fill:#F6BA7C;}
	.st41{fill:#F5AD80;}
	.st42{fill:#BD3B68;}
	.st43{fill:#8C4C9E;}
	.st44{fill:#A12F8E;}
	.st45{fill:#C45D93;}
	.st46{fill:#B14F9E;}
	.st47{fill:#B576B2;}
	.st48{fill:#CF5F56;}
	.st49{fill:#E48BBA;}
	.st50{fill:#913C97;}
	.st51{fill:#EF93A8;}
	.st52{fill:#CA4C5D;}
	.st53{fill:#BE3E6C;}
	.st54{fill:#A03594;}
	.st55{fill:#B13983;}
	.st56{fill:#78439A;}
	.st57{fill:none;stroke:#78439A;stroke-miterlimit:10;}
</style>
<g>
	<path class="st0" d="M94.98,106.65H23.61c-6.6,0-12-5.4-12-12V23.28c0-6.6,5.4-12,12-12h71.37c6.6,0,12,5.4,12,12v71.37
		C106.98,101.25,101.58,106.65,94.98,106.65z"/>
	<g>
		<g class="st1">
			<path class="st2" d="M85.43,60.96c-0.11-3.66-0.19-7.32-0.25-10.98c-0.05-2.81-0.48-5.56-1.24-8.27
				c-0.31-1.1-0.75-2.13-1.34-3.11c-1.16-1.94-2.91-3.06-5.07-3.59c-0.31-0.08-0.66-0.07-0.98-0.05c-0.21,0.01-0.36,0.19-0.25,0.42
				c0.09,0.17,0.23,0.32,0.38,0.44c2.8,2.2,4.08,5.17,4.43,8.63c0.19,1.92,0.28,3.85,0.25,5.78c-0.08,6.26-0.15,12.51-0.24,18.77
				c-0.02,1.54-0.43,3.01-0.79,4.5c-0.36,1.5-1.15,2.59-2.19,3.65c-1.5,1.53-3.27,2.51-5.34,2.95c-1.23,0.26-2.49,0.43-3.76,0.45
				c-1.33,0.02-2.67,0.03-3.98,0.23c-6.63,1.05-13.26,1.04-19.91,0.25c-3.35-0.4-6.29-1.62-8.51-4.29c-0.2-0.24-0.35-0.58-0.75-0.57
				c-0.28,0.25-0.13,0.52,0,0.72c0.64,1.01,1.27,2.03,1.98,2.99c0.88,1.19,1.89,2.26,3.33,2.77c1.38,0.48,2.75,0.99,4.21,1.22
				c3.03,0.48,6.09,0.64,9.15,0.77c5.73,0.24,11.45,0.28,17.16-0.32c1.46-0.15,2.9-0.4,4.29-0.88c5.06-1.76,8.35-5.08,9.25-10.5
				c0.28-1.71,0.51-3.43,0.45-5.17C85.67,65.48,85.5,63.22,85.43,60.96z"/>
			<path class="st2" d="M49.28,68.21c3.35,2.96,7.25,4.06,11.66,3.55c4.36-0.5,7.79-2.56,10.3-6.14c1.46-2.08,2.08-4.4,1.93-6.98
				c-0.14-2.46-0.81-4.69-2.02-6.82c-0.57-1-1.34-1.81-2.12-2.63c-0.21-0.22-0.55-0.45-0.28-0.81c0.19-0.24,0.48-0.12,0.74-0.06
				c0.78,0.18,1.55,0.4,2.33,0.53c0.66,0.11,1.33,0.08,1.97-0.17c1.06-0.41,1.67-1.45,1.47-2.54c-0.11-0.61-0.37-1.16-0.83-1.57
				c-0.55-0.49-0.92-1.25-1.86-1.41c0.05,0.46,0.11,0.79,0.11,1.11c0,1.98-0.94,2.94-2.91,3c-0.42,0.01-0.78-0.07-1.11-0.33
				c-0.2-0.16-0.44-0.31-0.68-0.38c-0.19-0.05-0.4,0.11-0.33,0.34c0.07,0.25,0.24,0.47,0.36,0.71c0.16,0.15,0.47,0.26,0.25,0.54
				c-0.21,0.28-0.42,0.02-0.61-0.07c-0.96-0.03-1.72-0.7-2.64-0.87c-0.19-0.03-0.41-0.05-0.48,0.17c-0.03,0.09,0.04,0.26,0.12,0.34
				c0.4,0.36,0.83,0.67,1.21,1.04c2.47,2.4,3.71,5.3,3.6,8.77c-0.07,2.19-1.04,4.11-1.77,6.1c-0.04,0.12-0.12,0.26-0.23,0.32
				c-1.53,0.93-2.69,2.37-4.37,3.1c-1.98,0.86-3.97,1.36-6.17,1.25c-4.73-0.23-8.3-2.17-10.36-6.53c-0.45-0.96-0.71-2-1.06-3
				c-0.11-0.3-0.17-0.67-0.63-0.64c-0.06,2.35,0.84,5.44,2.18,7.51C47.68,66.61,48.42,67.45,49.28,68.21z"/>
			<path class="st2" d="M56.79,64.44c-0.08-0.76-0.53-1.33-0.93-1.91c-2.92-4.26-1.89-9.59,2.92-12.01c0.29-0.15,0.82-0.15,0.78-0.7
				c-2.61-1-5.53-0.37-7.44,1.78c-2.16,2.42-2.83,5.22-1.56,8.32C51.68,62.65,54.08,64.38,56.79,64.44z"/>
		</g>
		<g>
			<path class="st3" d="M33.89,49.81c-0.08-2.26-0.12-4.52,0.28-6.75c1-5.49,4.88-8.93,10.41-9.23c1.46-0.08,2.92-0.05,4.38-0.06
				c4.79-0.03,9.58-0.04,14.36-0.09c0.86-0.01,1.72-0.12,2.58-0.17c2.14-0.14,4.26,0.17,6.35,0.48c4.34,0.63,6.93,3.41,8.29,7.42
				c0.42,1.25,0.72,2.56,0.52,3.92c0.41,3.01-0.37,3.6-3.53,2.7c-0.87-0.76-0.56-1.83-0.71-2.77c-1.04-5.06-3.25-6.9-8.38-6.88
				c-6.7,0.02-13.39-0.48-20.1-0.47c-5.41,0.01-9.94,3.71-9.96,9.61c0,0.84,0.13,1.75-0.62,2.42c-1.04,0.16-1.16-0.61-1.24-1.31
				c-0.11-1.02-0.05-2.05-0.05-3.08c-0.05-3.53,1.68-6.29,4.1-9.11c-3.27,2.29-4.34,5.34-4.61,8.76c-0.12,1.53-0.36,3.03-0.63,4.54
				c-0.18,0.39-0.36,0.84-0.85,0.88C33.97,50.64,34.12,50.05,33.89,49.81z"/>
			<path class="st4" d="M81.03,69.8c-0.19,6.41-4.65,9.97-9.02,10.47c-1.25,0.14-2.5,0.29-3.76,0.32c-1.52,0.03-3.04,0.11-4.57,0.26
				c-1.85,0.18-3.71,0.21-5.57,0.23c-3.98,0.03-7.96,0.04-11.94,0c-2.58-0.03-4.98-0.71-7.11-2.21c-0.16-0.05-0.28-0.15-0.37-0.28
				l-0.02-0.02c0.39-0.61,0.41-0.99-0.13-1.71c-2.47-3.25-2.55-7.02-1.91-10.87c1.14-0.6,1.2,0.3,1.31,1
				c0.15,0.91-0.06,1.86,0.37,2.73c1.94,4.89,5.1,6.83,10.43,6.38c0.46-0.04,0.93-0.07,1.4-0.05c6.52,0.25,13.02-0.56,19.54-0.44
				c3.79,0.07,6.33-2.4,6.78-6.19c0.09-0.78-0.04-1.61,0.44-2.32c0.05-0.03,0.16-0.1,0.16-0.1C78.01,68.43,79.65,68.93,81.03,69.8z"
				/>
			<path class="st5" d="M36.69,66.19c-0.02,1.19-0.13,2.38,0.24,3.56c0.15,0.49,0.1,1.06,0.1,1.59c-0.02,2.32,0.78,4.28,2.46,5.89
				c0.29,0.28,0.55,0.58,0.82,0.87c0.04,0.04,0.04,0.12,0.09,0.27c-0.54,0.35-1.28-0.62-1.74,0.2c-1.04-0.55-1.81-1.37-2.41-2.36
				c-0.74-2.56-2.04-4.99-1.76-7.78c0.01-0.66-0.05-1.32,0.07-1.97c0.22-1.25,0.82-1.78,2.03-0.94
				C36.75,65.73,36.78,65.95,36.69,66.19z"/>
			<path class="st6" d="M77.39,44.99c0.03,0.94,0.06,1.88,0.09,2.82c1.12,1.8,1.36,1.85,3.84,0.83c0.19,2.39,0.07,4.78-0.1,7.17
				c-0.2-0.03-0.35-0.14-0.46-0.32c-0.24-0.96-0.63-1.66-1.85-1.38c-0.69,0.16-1.43,0.15-1.83-0.66c-0.68-2.2-0.72-4.45-0.6-6.71
				C76.52,46.06,76.4,45.21,77.39,44.99z"/>
			<path class="st7" d="M81.03,69.8c-0.89-0.22-1.76-0.47-2.71-0.43c-0.63,0.02-0.78-0.18-0.86-0.83c-0.06-0.51,0.08-1.06-0.26-1.53
				c-0.48-0.23-0.66-0.69-0.67-1.15c-0.08-3.12-0.41-6.25,0.21-9.35c0.26-0.42,0.55-0.45,0.89-0.09c0.34,0.54,0.38,1.14,0.37,1.76
				c0.02,0.8,0.04,1.61,0.01,2.41c0.02,0.76,0.02,1.52-0.01,2.29c-0.21,1.52,0.22,2.52,1.96,2.6c0.47,0.02,0.78,0.43,1.11,0.74
				C81.19,67.4,81.21,68.6,81.03,69.8z"/>
			<path class="st8" d="M77.49,62.99c0-0.8,0-1.59-0.01-2.39c0.45-0.49,1.06-0.51,1.65-0.53c1.03-0.03,1.4-0.6,1.36-1.55
				c0.01-0.75-0.04-1.49,0.18-2.22c0.08-0.21,0.22-0.38,0.41-0.51l0.14,0.01c0.23,2.42,0.11,4.84,0.06,7.27
				c0,0.12-0.11,0.23-0.17,0.35C79.83,63.9,78.63,63.7,77.49,62.99z"/>
			<path class="st9" d="M77.49,62.99c1.23-0.03,2.45,0,3.62,0.43c-0.02,0.92-0.04,1.85-0.05,2.77c-0.83-0.13-1.63-0.45-2.5-0.43
				c-0.96,0.02-1.07-0.16-1.1-1.2C77.44,64.04,77.48,63.52,77.49,62.99z"/>
			<path class="st10" d="M35.03,68.61c-0.12,1.75,0.28,3.41,0.83,5.05c0.21,0.63,0.44,1.25,0.66,1.87c0.1,0.29-0.02,0.51-0.26,0.67
				c-1.48-1.82-2.07-3.98-2.32-6.24c-0.13-1.24-0.05-2.51-0.07-3.77c0.47-0.17,0.72,0.09,0.93,0.46C34.96,67.3,34.63,68,35.03,68.61
				z"/>
			<path class="st11" d="M81.33,48.64c-0.29,0.82-0.79,1.34-1.75,1.15c-0.06-0.01-0.13,0-0.2,0c-1.58-0.01-2.11,0.21-1.9-1.99
				c0.72,0,1.43,0,2.15-0.01c1.28-0.03,1.34-0.1,1.41-1.3c0.02-0.39,0.02-0.78,0.03-1.17C81.52,46.4,81.42,47.52,81.33,48.64z"/>
			<path class="st12" d="M34.64,66.58c-0.26-0.13-0.52-0.26-0.77-0.38c-0.1-2.51-0.04-5.03,0.08-7.54c1.41,0.71,0.49,2.21,1.09,3.2
				c0.15,0.67,0.14,1.35,0.17,2.04C35.2,64.83,34.86,65.69,34.64,66.58z"/>
			<path class="st13" d="M33.89,49.81c0.56,0.55,0.56,0.55,1.13-0.02c0.17,0.13,0.3,0.3,0.37,0.5c0.18,0.61,0.17,1.24,0.11,1.86
				c-0.04,0.3-0.14,0.59-0.33,0.82c0,0.53-0.74-0.7-0.57,0.24c0.17,0.96,0.27,1.92-0.15,2.85c-0.13,0.17-0.3,0.21-0.5,0.12
				C33.93,54.06,33.91,51.93,33.89,49.81z"/>
			<path class="st14" d="M33.95,56.18c0.1,0,0.19,0,0.29-0.01c0.45-0.26,0.13-0.68,0.21-1.02c0.13-0.57,0.3-0.92,0.87-0.33
				c0.1,0.19,0.16,0.38,0.2,0.59c-0.19,2.14,0.03,4.33-0.89,6.36c-0.44-0.31-0.35-0.79-0.4-1.24c-0.06-0.63,0.2-1.31-0.29-1.87
				C33.84,57.83,33.83,57.01,33.95,56.18z"/>
			<path class="st5" d="M38.68,78.59c0.12,0.1,0.25,0.19,0.37,0.29C38.85,78.88,38.74,78.77,38.68,78.59z"/>
			<path class="st15" d="M35.16,50.17c-0.05-0.13-0.09-0.25-0.14-0.38c0.27-2.36,0.43-4.74,0.85-7.08c0.49-2.78,1.95-5.02,4.3-6.64
				c0.22-0.15,0.46-0.26,0.7-0.37c0.26-0.12,0.52-0.12,0.7,0.13c0.14,0.2,0,0.38-0.13,0.52c-0.27,0.29-0.55,0.58-0.83,0.85
				c-1.44,1.42-2.39,3.16-3.12,5.02c-0.34,0.87-0.57,1.76-0.49,2.71c-0.37,1.52-0.06,3.07-0.18,4.61
				C36.5,50.37,35.85,50.34,35.16,50.17z"/>
			<path class="st16" d="M36.58,49.8c0.03-1.12,0.07-2.24,0.1-3.35c0.02-0.52-0.07-1.06,0.32-1.51c0.02,1.31,0.04,2.63,0.05,3.95
				c0,0.55,0.27,0.85,0.81,0.91c0.14,0.53,0.12,1.07-0.01,1.6c-0.6,0.42-1.02,0.12-1.39-0.35C36.27,50.61,36.3,50.19,36.58,49.8z"/>
			<path class="st17" d="M37.75,58.65c0.03,1.59,0.08,3.17,0.08,4.76c0,2.12-0.05,4.24-0.08,6.35c-0.33-0.31-0.31-0.71-0.31-1.11
				c-0.01-0.73,0.02-1.47-0.02-2.19c-0.03-0.54-0.42-0.35-0.73-0.27c-0.02-0.13-0.04-0.27-0.06-0.4c-0.96-1.73-0.57-3.56-0.43-5.38
				c0.07-0.23,0.18-0.43,0.34-0.61c1.56,0.43,0.04,1.75,0.74,2.21C37.8,61.11,36.32,59.67,37.75,58.65z"/>
			<path class="st18" d="M36.61,60.22c0.01,1.86,0.02,3.71,0.02,5.57c-0.18-0.08-0.35-0.2-0.54-0.24c-0.72-0.18-1.01,0.01-1.04,0.7
				c-0.03,0.78-0.02,1.57-0.03,2.36c-0.61-0.58-0.26-1.35-0.39-2.03c0.02-0.94,0.04-1.87,0.06-2.81c0.32-1.1,0.07-2.22,0.15-3.33
				c0.03-0.51-0.09-1.12,0.62-1.27C36.28,59.01,36.42,59.66,36.61,60.22z"/>
			<path class="st19" d="M77.23,56.34c-0.18-0.86-0.04-1.71,0.19-2.54c0.59,0,1.17-0.01,1.74-0.23c0.35-0.13,0.77-0.13,1.15-0.13
				c0.36,0,0.63,0.22,0.66,0.59c0.06,0.59,0.07,1.18,0.1,1.76c-0.03,0.14-0.05,0.28-0.08,0.42c-1.12,0.66-2.26,1.14-3.55,0.41
				C77.42,56.49,77.35,56.4,77.23,56.34z"/>
			<path class="st20" d="M77.46,56.62c0.5-0.06,1.03-0.04,1.49-0.21c0.68-0.24,1.37-0.2,2.06-0.2c0,0.8-0.01,1.59-0.01,2.39
				c-1.28,0.84-2.45,0.67-3.53-0.38C77.47,57.69,77.46,57.15,77.46,56.62z"/>
			<path class="st21" d="M77.47,58.22c1.15,0.41,2.34,0.41,3.53,0.38c0.01,0.07,0.01,0.13,0.02,0.2c0.16,1.91-0.34,1.8-1.74,1.8
				c-0.6,0-1.2,0-1.8,0.01C77.48,59.81,77.48,59.01,77.47,58.22z"/>
			<path class="st22" d="M36.61,60.22c-0.14-0.15-0.28-0.28-0.41-0.44c-0.18-0.22-0.4-0.37-0.68-0.29c-0.28,0.08-0.43,0.3-0.44,0.59
				c-0.02,0.8-0.03,1.6-0.04,2.39c-0.01,0.46,0.06,0.94-0.34,1.3c-0.02-0.67-0.04-1.33-0.07-2c-0.12-2.27,0.32-4.5,0.39-6.76
				c0.15-0.15,0.32-0.26,0.53-0.31c0.33-0.03,0.63,0.06,0.89,0.28c0.31,0.33,0.5,0.73,0.61,1.16c0.22,1.24,0.25,2.47-0.36,3.63
				C36.66,59.92,36.64,60.07,36.61,60.22z"/>
			<path class="st23" d="M36.25,55c-0.27,0-0.55-0.01-0.82-0.01c-0.85-0.84,0.08-1.9-0.36-2.8c0.03-0.67,0.06-1.35,0.09-2.02
				c0.43-0.3,0.91-0.42,1.43-0.37c0.04,0.4,0.08,0.81,0.12,1.21c0.14,0.29,0.25,0.59,0.22,0.93C36.6,52.94,37.08,54.11,36.25,55z"/>
			<path class="st19" d="M34.9,54.6c-0.4,0.52-0.21,1.13-0.27,1.71c-0.02,0.17-0.04,0.4-0.29,0.24c-0.08-0.05-0.07-0.24-0.1-0.37
				c0-1.2,0-2.4,0-3.88c0.36,0.37,0.52,0.54,0.69,0.7C35.4,53.54,35.45,54.07,34.9,54.6z"/>
			<path class="st24" d="M34.9,54.6c0.01-0.53,0.02-1.06,0.02-1.6c0.05-0.27,0.09-0.54,0.14-0.81c0.26,0.23,0.37,0.52,0.37,0.86
				c0,0.65-0.01,1.29-0.01,1.94c-0.14,0.01-0.27,0.02-0.41,0.03C34.98,54.88,34.94,54.74,34.9,54.6z"/>
			<path class="st25" d="M65.91,65.02c-0.49,0.8-1.24,1.25-2.09,1.57c-3.58,1.24-7.19-0.1-10.78,0.14c-1.3-0.12-2.19-0.76-2.54-2.06
				c-0.01-0.24,0.08-0.44,0.24-0.61c0.99-0.62,2.15-0.28,3.2-0.57c2.11,0.6,4.26,0.56,6.42,0.44c1.07,0.44,2.19,0.48,3.32,0.51
				C64.46,64.45,65.29,64.34,65.91,65.02z"/>
			<path class="st26" d="M63.92,47.37c0.13-0.02,0.22,0.03,0.28,0.15c-0.05,0.5-0.44,0.66-0.83,0.72c-3.16,0.44-6.32,0.9-9.51,0.29
				c-0.83-0.29-0.29-1.12-0.64-1.6c-0.14-0.2-0.28-0.4-0.17-0.66c3.29-1.11,6.55-1.25,9.75,0.35c0.23,0.12,0.43,0.29,0.65,0.44
				C63.61,47.17,63.74,47.3,63.92,47.37z"/>
			<path class="st27" d="M53.45,47.9c0.11,0.07,0.22,0.19,0.34,0.2c2.37,0.06,4.75,0.35,7.12-0.18c0.57-0.13,1.18-0.08,1.78-0.12
				c0.52-0.03,1.07,0.12,1.52-0.28c0.89,0.41,1.6,1.03,2.13,1.85c-1.61,1.5-3.6,0.86-5.46,0.98c-1.62-0.04-3.2-0.53-4.82-0.42
				c-0.39,0.01-0.78,0-1.16,0.11c-0.18,0.06-0.37,0.1-0.56,0.13c-0.85,0.06-1.71,0.26-2.47-0.33c-0.11-0.17-0.16-0.35-0.14-0.54
				c0.04-0.19,0.11-0.37,0.2-0.55C52.32,48.29,52.54,47.48,53.45,47.9z"/>
			<path class="st28" d="M60.49,49.87c0.2-0.02,0.39-0.05,0.59-0.05c1.76-0.02,3.53,0.05,5.25-0.45c0.93,0.73,1.61,1.64,1.94,2.79
				c0.05,1.16-0.77,1.25-1.59,1.21c-0.85-0.04-1.7-0.19-2.54-0.4C62.83,52.05,61.36,51.31,60.49,49.87z"/>
			<path class="st29" d="M52.59,66.22c1.45-0.01,2.9-0.02,4.35-0.02c0.33,0,0.68-0.06,0.99,0.03c1.94,0.62,3.93,0.28,5.89,0.36
				c-3.01,1.84-6.22,2.08-9.58,1.23C53.74,67.23,52.5,67.42,52.59,66.22z"/>
			<path class="st30" d="M63.94,52.59c0.91,0.02,1.82-0.02,2.72,0.32c0.69,0.26,1.28-0.05,1.61-0.75c0.75,1.09,1.06,2.31,1.08,3.62
				c-1.3,0.33-2.62,0.06-3.93,0.21C64.27,55.14,63.8,54,63.94,52.59z"/>
			<path class="st31" d="M68.64,61c-0.12,0.79-0.44,1.48-1.03,2.04c-1.45,1.25-3.07,1.06-4.73,0.59c-0.19-0.13-0.31-0.3-0.37-0.52
				c0-0.21,0.04-0.42,0.12-0.62c0.54-0.83,0.81-1.95,2.09-2C65.95,61.19,67.36,60.59,68.64,61z"/>
			<path class="st32" d="M71.81,42.57c0.77,0.46,0.9,1.2,0.89,2c-0.01,1.04-0.39,1.88-1.29,2.44c-0.66,0.25-1.32,0.29-1.98-0.02
				l0,0.01C69.01,44.65,69.95,42.88,71.81,42.57z"/>
			<path class="st33" d="M62.56,62.93c0.21,0.14,0.41,0.39,0.63,0.4c1.48,0.08,2.98,0.26,4.42-0.29c-0.39,0.81-0.93,1.5-1.7,1.98
				c-1.17-0.01-2.35-0.03-3.52-0.02c-0.82,0.01-1.55-0.15-2.14-0.75C60.73,63.3,61.39,62.68,62.56,62.93z"/>
			<path class="st34" d="M71.81,42.57c-0.32,0.05-0.59,0.13-0.82,0.44c-0.9,1.19-1.22,2.59-1.55,3.99c-0.8-0.05-1.31-0.47-1.53-1.25
				c0.2-0.51,0.21-1.01,0-1.51c0.8-1.7,1.57-2.18,3.25-2.04C71.44,42.22,71.65,42.36,71.81,42.57z"/>
			<path class="st35" d="M65.39,55.9c0.14-0.13,0.26-0.35,0.42-0.37c1.2-0.16,2.4-0.36,3.55,0.24c0.15,0.41,0.15,0.82,0.04,1.24
				c-0.92,1.59-1.94,1.73-4.04,0.52C65.01,56.98,64.97,56.44,65.39,55.9z"/>
			<path class="st36" d="M46.23,61.05c-0.53-0.74-0.77-1.57-0.73-2.49c0.59-1.09-0.52-2.55,0.75-3.49c0.71-0.24,1.4-0.22,2.05,0.2
				c0.69,0.92,0.51,1.96,0.42,2.99c-0.04,0.2-0.11,0.39-0.22,0.57C46.86,58.66,46.8,60.12,46.23,61.05z"/>
			<path class="st37" d="M68.64,61c-1.08,0.62-2.25,0.4-3.39,0.34c-0.47-0.03-0.57-0.45-0.65-0.83c-0.29-1.01-0.35-1.93,0.87-2.38
				c1,1.03,2.61,0.37,3.65,1.3C69.14,60,69.02,60.54,68.64,61z"/>
			<path class="st38" d="M46.23,61.05c0.01-0.66,0-1.32,0.04-1.98c0.05-0.79,0.7-1.09,1.39-0.63c0.21,0.14,0.37,0.37,0.55,0.57
				c0.84,0.54,0.97,1.41,1.1,2.29c-0.02,0.19-0.08,0.37-0.18,0.53c-0.75,0.1-1.61-0.1-2.08,0.78C46.55,62.2,46.3,61.67,46.23,61.05z
				"/>
			<path class="st39" d="M69.12,59.42c-0.83-0.01-1.66,0-2.49-0.03c-0.96-0.03-0.96-0.04-1.23-1.28c-0.17-0.25-0.15-0.49,0.05-0.71
				c0.77,0.08,1.47,0.46,2.29,0.43c0.73-0.02,1.22-0.3,1.66-0.81C69.51,57.84,69.57,58.66,69.12,59.42z"/>
			<path class="st40" d="M52.59,66.22c0.2,0.36,0.49,0.61,0.84,0.79c0.36,0.18,0.66,0.41,0.81,0.81c-2.56-0.28-4.43-1.7-6-3.62
				c0.52-0.53,1.12-0.48,1.76-0.28c0.3,0.14,0.49,0.38,0.6,0.69c0.25,0.28,0.5,0.56,0.75,0.84C51.69,65.83,52.04,66.18,52.59,66.22z
				"/>
			<path class="st41" d="M50.22,64.22c-0.66-0.01-1.32-0.02-1.98-0.03c-0.64-0.36-0.93-0.97-1.2-1.6c0.05-0.49-0.19-1.1,0.3-1.42
				c0.64-0.42,1.02,0.25,1.48,0.53c0.05,0.03,0.11,0.07,0.16,0.1c0.86,0.22,0.99,1.03,1.35,1.66c0.06,0.18,0.09,0.36,0.07,0.55
				C50.34,64.08,50.28,64.15,50.22,64.22z"/>
			<path class="st42" d="M36.69,59.77c-0.02-1.32-0.03-2.64-0.05-3.96c-0.28-0.34-0.19-0.74-0.15-1.12c1.07-0.38,0.89,0.7,1.3,1.1
				c0.17,0.96,0,1.91-0.04,2.86c-0.38,0.37-0.28,0.84-0.3,1.29c-0.04,0.74,0.07,1.49-0.15,2.34C36.77,61.42,37.37,60.45,36.69,59.77
				z"/>
			<path class="st43" d="M53.06,46.27c0.15,0.13,0.29,0.25,0.43,0.38c-0.03,0.83-0.76,1.01-1.3,1.26c-1.33,0.61-2.4,1.52-3.38,2.56
				c-0.13,0.13-0.26,0.25-0.41,0.36c-0.15,0.11-0.3,0.2-0.47,0.27c-0.09,0.01-0.18,0.01-0.27,0.02c-0.24-0.13-0.49-0.26-0.26-0.59
				C48.86,48.52,50.64,46.97,53.06,46.27z"/>
			<path class="st44" d="M37.79,55.79c-0.58-0.19-0.67-0.82-1.05-1.19c-0.54-0.9-0.29-1.85-0.14-2.79c0.03-0.27,0.07-0.53,0.1-0.8
				c0.37,0.18,0.72,0.41,1.16,0.39C37.84,52.86,37.82,54.32,37.79,55.79z"/>
			<path class="st45" d="M46.23,55.39c-0.52,0.48-0.31,1.11-0.37,1.69c-0.05,0.51,0.12,1.08-0.36,1.49
				c-0.22-2.06-0.25-4.09,0.71-6.01c0.32,0.07,0.54,0.27,0.66,0.58C46.98,53.97,46.82,54.74,46.23,55.39z"/>
			<path class="st46" d="M46.66,53c-0.15-0.15-0.3-0.3-0.46-0.45c0.13-0.84,0.6-1.47,1.2-2.03c0.15,0.16,0.29,0.31,0.44,0.47
				C48.09,52.03,47.56,52.62,46.66,53z"/>
			<path class="st34" d="M69.44,47c0.66,0.01,1.32,0.01,1.98,0.02C70.75,47.57,70.09,47.66,69.44,47z"/>
			<path class="st47" d="M67.91,44.24c0.47,0.5,0.47,1.01,0,1.51C67.75,45.25,67.75,44.75,67.91,44.24z"/>
			<path class="st27" d="M63.92,47.37c-0.15-0.11-0.31-0.21-0.46-0.32C63.69,47.05,63.83,47.17,63.92,47.37z"/>
			<path class="st24" d="M36.6,51.81c0.05,0.93,0.09,1.86,0.14,2.78c-0.03,0.41-0.07,0.81-0.1,1.22c-0.31-0.18-0.4-0.48-0.4-0.81
				c0-0.78,0-1.55,0-2.33C36.25,52.34,36.34,52.04,36.6,51.81z"/>
			<path class="st48" d="M51.14,61.25c0.77,0.74,1.55,1.48,2.32,2.22c0.13,0.11,0.28,0.22,0.42,0.31l0-0.01
				c-0.25,0.34-0.6,0.43-1,0.43c-0.76,0.01-1.51,0.02-2.27,0.02c0,0-0.17-0.1-0.17-0.1c-0.06-0.12-0.13-0.22-0.21-0.32
				c-0.64-0.52-0.78-1.36-1.25-2c0.01-0.14,0.03-0.27,0.05-0.41C49.72,61.04,50.44,61.32,51.14,61.25z"/>
			<path class="st41" d="M50.6,64.6c-0.13-0.13-0.25-0.25-0.38-0.38l0.02-0.02c0.14-0.13,0.27-0.11,0.39,0.02l-0.01,0
				C50.62,64.34,50.62,64.47,50.6,64.6z"/>
			<path class="st49" d="M48.3,50.6c0.79-1.24,1.85-2.17,3.16-2.82c0.7-0.35,1.36-0.75,2.04-1.13c0.77,0.24,0.8,0.29,0.36,0.83
				c-0.12,0.15-0.28,0.28-0.42,0.42c-0.55,0.21-0.91,0.61-1.2,1.1c-0.15,0.11-0.26,0.27-0.4,0.4l0,0c-0.19,0.37-0.34,0.75-0.63,1.06
				c-0.28,0.31-0.51,0.7-1.03,0.58C49.61,50.65,48.85,51.06,48.3,50.6z"/>
			<path class="st50" d="M51.06,50.22c0.15-0.39,0.4-0.66,0.79-0.82c0.21,0.28,0.5,0.39,0.85,0.39c0.65,0,1.3,0,1.95,0
				c-0.66,0.41-1.33,0.81-1.99,1.22C52,50.98,51.2,51.26,51.06,50.22z"/>
			<path class="st50" d="M55.56,49.45c-0.24,0.29-0.56,0.37-0.92,0.35C54.85,49.43,55.19,49.4,55.56,49.45z"/>
			<path class="st50" d="M51.85,49.4c0.13-0.13,0.26-0.26,0.4-0.4C52.11,49.13,51.98,49.27,51.85,49.4z"/>
			<path class="st33" d="M62.57,62.96c0.06-0.24,0.22-0.37,0.45-0.44C62.96,62.76,62.81,62.91,62.57,62.96z"/>
			<path class="st51" d="M48.3,50.6c0.3-0.09,0.6-0.18,0.9-0.26c0.67-0.18,0.69-0.16,1.04,0.64c0.01,0.08,0.01,0.16,0.02,0.25
				c0.01,0.17-0.01,0.33-0.04,0.49c-0.11,0.49-0.32,0.95-0.53,1.4c-0.34,0.59-0.53,1.25-0.81,1.86c-0.15,0.23-0.36,0.38-0.63,0.43
				c-0.67-0.01-1.34-0.01-2-0.02c-0.09-0.84,0.27-1.6,0.44-2.39c0.39-0.67,0.78-1.34,1.18-2.01l0.09,0
				c0.07-0.14,0.18-0.25,0.31-0.34L48.3,50.6z"/>
			<path class="st52" d="M51.14,61.25c-0.64,0.93-1.37,0.46-2.1,0.14c-0.28-0.8-0.55-1.6-0.83-2.39c0.03-0.13,0.06-0.26,0.09-0.39
				c0.58-0.04,1.14-0.14,1.61-0.52C50.32,59.14,50.73,60.19,51.14,61.25z"/>
			<path class="st53" d="M49.91,58.08c-0.03,0.25-0.03,0.51-0.11,0.74c-0.17,0.53-0.56,0.66-0.99,0.33
				c-0.2-0.15-0.34-0.36-0.51-0.54c-0.02-1.07-0.04-2.14-0.06-3.2c0.12-0.16,0.25-0.32,0.37-0.48c0.54,0.31,0.85,0.86,1.28,1.28
				C49.89,56.83,49.9,57.45,49.91,58.08z"/>
			<path class="st25" d="M50.63,64.22c-0.13-0.01-0.26-0.01-0.39-0.02c0-0.13,0-0.27,0-0.4C50.37,63.94,50.5,64.08,50.63,64.22z"/>
			<path class="st49" d="M48.24,50.65c-0.1,0.11-0.21,0.23-0.31,0.34C47.95,50.8,48.07,50.69,48.24,50.65z"/>
			<path class="st54" d="M49.38,52.92c0.16-0.49,0.32-0.98,0.48-1.47c0.1-0.17,0.25-0.3,0.36-0.46l0.01-0.01
				c0.27-0.26,0.55-0.51,0.82-0.77c0.19,0.29,0.48,0.38,0.8,0.38c0.33,0.01,0.61,0.12,0.79,0.41c-0.64,0.81-1.27,1.62-1.91,2.42
				C50.14,53.65,49.49,54,49.38,52.92z"/>
			<path class="st55" d="M49.38,52.92c0.31,0.54,0.86,0.47,1.36,0.51c-0.29,0.92-0.57,1.84-0.86,2.76
				c-1.12-0.11-1.12-0.11-1.28-1.28C48.59,54.15,48.88,53.49,49.38,52.92z"/>
			<path class="st25" d="M53.88,63.78c-0.14-0.1-0.28-0.21-0.42-0.31C53.68,63.46,53.82,63.57,53.88,63.78z"/>
			<path class="st49" d="M50.23,50.99c-0.12,0.15-0.24,0.31-0.36,0.46C49.99,51.3,50.11,51.15,50.23,50.99z"/>
		</g>
		<g>
			<path class="st56" d="M57.78,32.97c3.93,0,7.86,0,11.79,0c0.47,0,0.93,0.03,1.4,0.05c6.2,0.26,9.51,4.61,10.52,8.8
				c0.51,2.09,0.57,4.23,0.63,6.35c0.16,5.66,0.13,11.33-0.13,16.99c-0.05,1.2-0.06,2.4-0.07,3.6c-0.02,1.54-0.22,3.06-0.7,4.52
				c-1.4,4.31-4.26,7-8.81,7.68c-1.71,0.26-3.44,0.39-5.17,0.5c-7.12,0.48-14.25,0.55-21.38,0.4c-4.49-0.09-8.11-1.98-10.7-5.65
				c-1.55-2.19-2.08-4.74-2.12-7.38c-0.04-3.06-0.07-6.13-0.02-9.19c0.08-4.86,0.22-9.72,0.34-14.59c0.01-0.53,0.04-1.07,0.09-1.6
				c0.43-4.6,3.8-8.67,8.16-9.86c1.04-0.28,2.09-0.38,3.16-0.41c4.33-0.11,8.66-0.22,12.99-0.32C57.78,32.9,57.78,32.94,57.78,32.97
				z M57.73,33.71c0,0.03,0,0.07,0,0.1c-3.53,0-7.06-0.01-10.59,0.01c-1.06,0.01-2.13,0.05-3.19,0.15c-0.99,0.1-1.98,0.27-2.91,0.67
				c-4.1,1.75-6.42,4.8-6.87,9.27c-0.21,2.12-0.32,4.25-0.27,6.38c0.12,4.93,0.06,9.86-0.03,14.78c-0.04,2,0.03,3.99,0.36,5.97
				c0.52,3.1,2.01,5.6,4.55,7.47c2.05,1.51,4.36,2.27,6.86,2.45c1.19,0.08,2.4,0.07,3.59,0.06c3.8-0.02,7.6,0.02,11.39-0.12
				c2.93-0.11,5.85-0.36,8.78-0.44c1.06-0.03,2.13-0.19,3.16-0.42c4.24-0.93,6.88-3.57,8.02-7.73c0.35-1.29,0.46-2.61,0.48-3.95
				c0.06-5.53,0.13-11.05,0.24-16.58c0.05-2.54-0.09-5.06-0.31-7.58c-0.1-1.2-0.37-2.37-0.84-3.48c-1.54-3.71-4.16-6.12-8.27-6.66
				c-1.65-0.22-3.31-0.36-4.98-0.35C63.86,33.72,60.8,33.71,57.73,33.71z"/>
			<path class="st57" d="M57.73,33.71c3.06,0,6.13,0.01,9.19,0c1.67-0.01,3.32,0.13,4.98,0.35c4.11,0.54,6.73,2.95,8.27,6.66
				c0.46,1.11,0.73,2.29,0.84,3.48c0.21,2.52,0.36,5.04,0.31,7.58c-0.11,5.53-0.18,11.05-0.24,16.58c-0.01,1.34-0.12,2.66-0.48,3.95
				c-1.14,4.16-3.78,6.8-8.02,7.73c-1.04,0.23-2.11,0.39-3.16,0.42c-2.93,0.08-5.85,0.33-8.78,0.44c-3.79,0.14-7.59,0.1-11.39,0.12
				c-1.2,0.01-2.4,0.02-3.59-0.06c-2.51-0.17-4.82-0.94-6.86-2.45c-2.54-1.87-4.03-4.38-4.55-7.47c-0.34-1.98-0.4-3.98-0.36-5.97
				c0.09-4.93,0.15-9.86,0.03-14.78c-0.05-2.13,0.05-4.26,0.27-6.38c0.45-4.46,2.77-7.52,6.87-9.27c0.93-0.4,1.92-0.57,2.91-0.67
				c1.06-0.1,2.13-0.15,3.19-0.15c3.53-0.02,7.06-0.01,10.59-0.01C57.73,33.77,57.73,33.74,57.73,33.71z M76.25,56.66
				C76.25,56.66,76.24,56.66,76.25,56.66c0-3.86,0-7.73,0-11.59c0-0.87-0.01-1.71-0.42-2.53c-1.25-2.47-3.18-3.91-5.99-3.92
				c-7.8-0.03-15.59-0.02-23.39-0.02c-0.67,0-1.31,0.11-1.97,0.26c-1.61,0.37-2.61,1.53-3.7,2.59c-1.06,1.03-1.59,2.32-1.69,3.74
				c-0.15,2.12,0.09,4.26-0.37,6.36c-0.02,5.53-0.06,11.06-0.05,16.59c0.01,3.02,1.83,5.81,4.99,7.01c2.48,0.94,5,0.63,7.5,0.48
				c0.98-0.06,1.98-0.21,2.97-0.22c4.86-0.02,9.73-0.05,14.59-0.03c1.09,0.01,2.13-0.19,3.14-0.48c1.59-0.46,2.85-1.39,3.55-2.98
				c0.51-1.17,0.87-2.35,0.86-3.66C76.23,64.39,76.25,60.52,76.25,56.66z"/>
			<path class="st56" d="M57.6,69.03c-4.55-0.07-8.31-1.76-10.95-5.54c-2.47-3.55-2.89-7.33-1.1-11.35c0.7-1.56,1.65-2.89,2.94-3.97
				c5.32-4.45,12.37-5.03,18.18,0.12c5.6,4.97,5.03,13.67-1.08,18.03C63.22,68.01,60.58,69.08,57.6,69.03z M56.4,68.15
				c3.02,0.01,5.11-0.46,6.91-1.38c5.24-2.68,8.1-9.53,4.35-15.53c-3.86-6.18-12.23-7.42-17.98-2.88
				c-4.69,3.71-5.12,9.87-2.64,14.01C49.36,66.22,52.87,68.06,56.4,68.15z"/>
			<path class="st56" d="M73.64,44.69c-0.02,1.74-1.41,3.09-3.2,3.11c-1.88,0.02-3.33-1.27-3.31-2.95c0.03-1.81,1.71-3.39,3.52-3.32
				C72.23,41.59,73.66,43.11,73.64,44.69z M70.3,47.06c1.28,0,2.27-1.08,2.29-2.49c0.02-1.27-0.82-2.14-2.08-2.15
				c-1.38-0.02-2.52,1.1-2.54,2.51C67.94,46.22,68.86,47.07,70.3,47.06z"/>
			<path class="st56" d="M49.82,56.95c0.12-5.08,4.08-7.72,7.31-7.74c4.69-0.03,8.33,3.41,8.36,7.84c0.04,4.77-4.37,7.78-7.81,7.77
				C53.29,64.81,49.8,61.31,49.82,56.95z M57.63,50.14c-3.98-0.06-6.92,2.73-6.93,6.61c-0.02,3.92,3,7.02,6.86,7.05
				c3.74,0.03,6.62-2.87,6.66-6.71C64.26,53.09,61.52,50.2,57.63,50.14z"/>
		</g>
	</g>
</g>
</svg>
