<?xml version="1.0" encoding="utf-8"?>
<!-- Generator: Adobe Illustrator 24.1.0, SVG Export Plug-In . SVG Version: 6.00 Build 0)  -->
<svg version="1.1" id="Layer_1" xmlns="http://www.w3.org/2000/svg" xmlns:xlink="http://www.w3.org/1999/xlink" x="0px" y="0px"
	 viewBox="0 0 118.6 117.93" style="enable-background:new 0 0 118.6 117.93;" xml:space="preserve">
<style type="text/css">
	.st0{opacity:0.1;fill:#3C5997;}
	.st1{opacity:0.38;}
	.st2{fill:#0C7CBA;}
	.st3{fill:#70B7E5;}
	.st4{fill:#0378B8;}
	.st5{fill:#0CB5EA;}
	.st6{fill:#09B3E9;}
	.st7{fill:#1E4B63;}
	.st8{fill:#325A70;}
</style>
<g>
	<path class="st0" d="M94.98,106.65H23.61c-6.6,0-12-5.4-12-12V23.28c0-6.6,5.4-12,12-12h71.37c6.6,0,12,5.4,12,12v71.37
		C106.98,101.25,101.58,106.65,94.98,106.65z"/>
	<g>
		<g class="st1">
			<path class="st2" d="M35.7,80.12c3.03,2,6.52,2.07,9.96,2.14c4.39,0.08,8.79-0.08,13.19-0.11c1.33-0.01,2.66,0.03,3.99,0.06
				c0.55,0.01,1.04-0.04,1.38-0.57c0.35-0.55,0.95-0.38,1.47-0.33c2.14,0.18,4.27,0.1,6.38-0.25c1.66-0.27,3.3-0.39,4.97-0.33
				c1.85,0.06,3-0.86,3.71-2.47c0.13-0.3,0.27-0.62,0.32-0.94c0.25-1.51,0.52-3.01,0.52-4.56c-0.04-10.99-0.08-21.98-0.08-32.97
				c0-2.26-0.63-4.19-2.43-5.65c-0.09-0.08-0.13-0.22-0.27-0.47c1.97,0.22,3.52,0.99,4.65,2.53c1.32,1.8,2.19,3.8,2.54,6.01
				c0.43,2.64,0.44,5.31,0.4,7.97c-0.12,7.59-0.27,15.18-0.44,22.77c-0.04,2-0.18,3.99-0.28,5.98c-0.11,2.21-1.34,3.72-3.12,4.82
				c-1.54,0.95-3.22,1.53-5.05,1.75c-3.52,0.42-7.04,0.43-10.57,0.38c-4.19-0.06-8.39-0.21-12.58-0.17
				c-3.06,0.03-6.12,0.21-9.19,0.08c-1.6-0.07-3.19-0.29-4.72-0.74c-2.14-0.63-3.82-1.86-4.76-3.94
				C35.54,80.82,35.36,80.5,35.7,80.12z M82.56,75.72c0.24-1.28,0.73-2.09,0.43-3.27C82.56,73.5,82.2,74.33,82.56,75.72z"/>
			<path class="st3" d="M82.56,75.72c-0.36-1.39,0-2.22,0.43-3.27C83.29,73.63,82.8,74.44,82.56,75.72z"/>
		</g>
		<g>
			<path class="st4" d="M81.52,45.01c0-1.73,0.01-3.46-0.01-5.19c-0.01-0.66-0.02-1.34-0.14-1.99c-0.45-2.5-2.32-4.28-4.83-4.66
				c-0.53-0.08-1.06-0.11-1.59-0.11c-4.59-0.02-9.18-0.01-13.77-0.24c-5.12-0.26-10.25-0.02-15.38-0.01c-1.79,0-3.58,0.07-5.37,0.19
				c-2.58,0.17-4.54,1.37-5.72,3.74c-0.55,1.1-0.78,2.24-0.8,3.46c-0.1,6.25-0.22,12.51-0.33,18.76c-0.05,2.73-0.08,5.46-0.14,8.19
				c-0.05,2.53-0.13,5.06-0.18,7.58c-0.03,1.36,0.27,2.65,0.92,3.84c0.43,0.79,1.02,1.4,1.96,1.56c1.24,0.21,2.45,0.6,3.74,0.6
				c6.19-0.01,12.38-0.01,18.58-0.01c0-0.02,0-0.05,0-0.07c4.86,0,9.72,0,14.58,0c1.46,0,2.93,0.04,4.39,0.06
				c1.33,0.01,2.26-0.65,2.95-1.73c0.36-0.57,0.6-1.18,0.73-1.84c0.32-1.57,0.48-3.15,0.47-4.76
				C81.56,63.26,81.54,54.13,81.52,45.01z M45.75,76.37c-0.99,0.06-1.99,0.16-2.98,0.16c-0.45,0-0.91-0.15-1.36-0.27
				c-0.63-0.16-1.01-0.55-1.18-1.21c-0.18-0.72-0.23-1.44-0.24-2.18c-0.04-4.13-0.09-8.25-0.15-12.38
				c-0.01-0.86-0.12-1.72-0.16-2.58c-0.1-1.93,0.12-3.85,0.31-5.77c0.08-0.86,0.55-1.31,1.3-1.57c0.19-0.06,0.39-0.14,0.58-0.14
				c1.66,0,3.33-0.06,4.99,0.05c1.13,0.07,1.47,0.5,1.54,1.68c0.11,1.72,0.22,3.45,0.25,5.18c0.04,2.4,0.01,4.79,0.01,7.19
				c0.01,0,0.01,0,0.02,0c0,2.93-0.07,5.86,0.02,8.79C48.74,75.36,47.33,76.27,45.75,76.37z M45.71,47.97
				c-1.34,0.36-2.61,0.47-3.88-0.18c-1.76-0.89-2.7-2.34-2.75-4.3c-0.02-0.79,0.09-1.58,0.38-2.35c0.65-1.72,1.8-2.78,3.67-2.89
				c0.92-0.06,1.8-0.37,2.77-0.13c2.23,0.55,3.46,1.91,3.61,4.17c0.02,0.27,0,0.53,0,0.8C49.52,45.7,48.21,47.3,45.71,47.97z
				 M77.82,72.63c-0.01,0.2-0.08,0.39-0.11,0.59c-0.43,2.31-0.91,2.78-3.24,3.01c-1.12,0.11-2.26,0.14-3.39,0.16
				c-0.53,0.01-1.07-0.06-1.58-0.2c-0.94-0.25-1.17-0.54-1.25-1.53c-0.18-2.06-0.31-4.11-0.04-6.17c0.05-0.39,0.03-0.8,0.01-1.2
				c-0.09-1.66-0.17-3.32-0.31-4.98c-0.07-0.79-0.21-1.58-0.4-2.36c-0.21-0.85-0.63-1.61-1.28-2.22c-0.91-0.84-2.07-0.92-3.11-0.24
				c-0.82,0.54-1.32,1.31-1.61,2.22c-0.42,1.34-0.72,2.71-0.77,4.11c-0.06,2.06-0.08,4.12-0.06,6.19c0.01,1.33,0,2.66-0.29,3.97
				c-0.33,1.5-0.77,1.95-2.22,2.13c-1.66,0.21-3.32-0.02-4.97-0.22c-0.86-0.1-1.43-0.73-1.61-1.57c-0.18-0.84-0.3-1.71-0.36-2.57
				c-0.15-2.32-0.36-4.65-0.34-6.97c0.04-3.92,0.24-7.84,0.39-11.76c0.02-0.46,0.14-0.92,0.28-1.36c0.22-0.68,0.7-1.18,1.41-1.28
				c1.84-0.27,3.67-0.58,5.55-0.28c1,0.16,1.8,0.44,2.04,1.78c2.21-1.85,4.49-2.48,6.95-2.42c3.94,0.09,6.83,1.89,8.62,5.44
				c0.79,1.57,1.08,3.29,1.36,4.98C78.21,64.11,78.07,68.37,77.82,72.63z"/>
			<path class="st5" d="M38.7,35.05c-0.83,1.37-1.02,2.51-1.22,3.7c-0.45,2.72-0.26,5.44-0.35,8.16c-0.03,0.99,0.03,1.99-0.28,2.97
				c-0.15,0.49-0.09,1.06-0.09,1.59c-0.02,2.93-0.01,5.86-0.04,8.79c-0.02,1.72,0.17,3.46-0.32,5.16c-0.09,0.31-0.03,0.66-0.03,0.99
				c-0.01,2.4,0.04,4.79-0.04,7.19c-0.04,1.16,0.4,2.22,0.45,3.35c0.02,0.42,0.34,0.71,0.61,1.01c0.26,0.29,0.61,0.52,0.66,0.95
				c-0.65,0.39-1.18,0.05-1.7-0.22c-0.55-0.28-0.99-0.68-1.18-1.29c-0.21-0.7-0.38-1.39-0.45-2.13c-0.62-6.84-0.31-13.69-0.36-20.53
				c-0.01-0.93-0.02-1.85,0.25-2.77c0.16-0.56,0.09-1.19,0.11-1.78c0.09-2.25-0.14-4.52,0.36-6.76c0.17-0.76,0.04-1.59,0.07-2.39
				c0.06-1.48,0.4-2.88,1.11-4.2C36.74,35.96,37.42,35.42,38.7,35.05z"/>
			<path class="st6" d="M67.16,68.74c0,1.66,0.01,3.32-0.01,4.97c0,0.32-0.09,0.65-0.15,0.97c-0.01,0.05-0.09,0.11-0.13,0.11
				c-0.12,0.01-0.28,0.03-0.35-0.04c-0.41-0.38-0.51-0.89-0.56-1.44c-0.23-2.43-0.41-4.87-0.46-7.32c-0.04-1.83-0.29-3.67-0.69-5.48
				c-0.13-0.61-0.4-1.11-0.67-1.63c-0.04-0.08,0.01-0.27,0.09-0.35c0.07-0.08,0.24-0.13,0.34-0.1c0.65,0.19,1.23,0.53,1.58,1.13
				c0.23,0.39,0.47,0.83,0.54,1.27c0.22,1.37,0.56,2.71,0.48,4.13C67.11,66.22,67.16,67.48,67.16,68.74
				C67.16,68.74,67.16,68.74,67.16,68.74z"/>
		</g>
		<g>
			<path class="st7" d="M82.68,56.49c0.11,4,0.11,7.99,0.31,11.99c0.15,2.92-0.04,5.85-0.57,8.76c-0.52,2.9-2.64,4.37-5.02,4.63
				c-1.46,0.16-2.92,0.29-4.38,0.36c-9.26,0.47-18.52,0.55-27.78,0.2c-1.2-0.05-2.4-0.08-3.6-0.02c-2.04,0.11-3.97-0.38-5.9-0.88
				c-1.37-0.35-2.34-1.23-2.96-2.49c-0.51-1.03-0.73-2.14-0.77-3.29c-0.07-2.33-0.16-4.66-0.17-6.99
				c-0.02-7.2-0.02-14.39,0.02-21.59c0.01-2.53,0.16-5.06,0.52-7.58c0.15-1.05,0.38-2.08,0.75-3.09c0.79-2.21,2.44-3.43,4.51-4.21
				c1.38-0.52,2.85-0.69,4.31-0.78c8.52-0.53,17.05-0.73,25.58-0.34c2.86,0.13,5.72,0.24,8.56,0.65c1.36,0.2,2.58,0.71,3.7,1.43
				c1.45,0.94,2.46,2.25,2.64,4.04c0.11,1.06,0.24,2.12,0.25,3.18C82.7,45.82,82.68,51.16,82.68,56.49z M58.35,80.66
				c0-0.03,0-0.06,0-0.09c3.66,0,7.33-0.01,10.99,0c2.53,0.01,5.06,0.06,7.59,0.06c1.89-0.01,3.16-0.92,3.79-2.67
				c0.18-0.5,0.28-1.03,0.38-1.55c0.28-1.58,0.44-3.16,0.43-4.77c-0.05-10.46-0.07-20.91-0.12-31.37c0-0.73-0.06-1.46-0.16-2.19
				c-0.33-2.46-2.01-4.2-4.47-4.72c-0.85-0.18-1.71-0.26-2.58-0.25c-9.39,0.08-18.77-0.45-28.16-0.13c-1.8,0.06-3.6-0.03-5.39,0.11
				c-3.79,0.29-5.98,2.55-6.58,6.33c-0.06,0.39-0.06,0.8-0.07,1.2C33.8,51.81,33.61,63,33.44,74.18c-0.01,0.6,0.04,1.2,0.07,1.8
				c0.05,0.95,0.42,1.81,0.89,2.62c0.41,0.72,0.98,1.18,1.84,1.39c1.69,0.4,3.38,0.69,5.13,0.68
				C47.03,80.65,52.69,80.66,58.35,80.66z"/>
			<path class="st7" d="M62.76,57.89c-0.95,1.09-1.35,2.4-1.62,3.8c-0.38,1.98-0.41,3.97-0.39,5.97c0.01,1.4,0.01,2.8,0.01,4.2
				c0,0.33,0,0.67-0.04,1c-0.31,2.92-1.02,3.46-3.57,3.41c-1.13-0.02-2.27,0-3.4-0.09c-1.39-0.11-2.03-0.7-2.36-2.03
				c-0.11-0.45-0.17-0.92-0.21-1.38c-0.37-4.99-0.56-9.98-0.26-14.98c0.09-1.46,0.13-2.93,0.21-4.39c0.03-0.53,0.07-1.07,0.2-1.58
				c0.24-0.91,0.8-1.46,1.8-1.61c1.59-0.25,3.17-0.4,4.78-0.3c1.59,0.1,1.77,0.19,2.94,1.47c0.2-0.13,0.41-0.26,0.62-0.4
				c2.6-1.77,5.51-2.01,8.44-1.33c3.42,0.79,5.72,3.01,6.82,6.38c0.6,1.84,0.95,3.75,1.13,5.67c0.35,3.66,0.33,7.32,0.02,10.98
				c-0.06,0.66-0.17,1.34-0.42,1.94c-0.39,0.97-1.03,1.66-2.24,1.66c-0.86,0-1.72,0.18-2.58,0.26c-1.07,0.1-2.13,0.09-3.17-0.21
				c-1.12-0.32-1.41-0.65-1.46-1.83c-0.06-1.33-0.05-2.66-0.06-4c-0.03-2.13-0.02-4.26-0.1-6.39c-0.04-1.13-0.19-2.26-0.34-3.38
				c-0.14-1.01-0.53-1.93-1.24-2.68c-0.74-0.78-1.6-1.19-2.69-0.74c-0.02-0.19-0.03-0.37-0.05-0.56c0.53-0.07,1.05-0.18,1.58-0.19
				c1.96-0.02,3.12,0.82,3.71,2.69c0.14,0.44,0.25,0.9,0.29,1.36c0.15,1.66,0.37,3.3,0.28,4.98c-0.12,2.39-0.16,4.79-0.24,7.19
				c-0.02,0.53-0.04,1.07-0.03,1.6c0.01,0.49,0.3,0.72,0.76,0.73c1.8,0.05,3.6,0.06,5.39-0.17c0.96-0.13,1.06-0.27,1.18-1.27
				c0.39-3.18,0.31-6.39,0.21-9.58c-0.07-2.19-0.26-4.39-0.79-6.53c-1.5-6.08-7.31-8.01-12.18-6.3c-0.94,0.33-1.78,0.89-2.55,1.55
				c-0.44,0.38-0.63,1.29-1.21,1.17c-0.74-0.16-0.44-1.12-0.7-1.69c-0.08-0.18-0.08-0.39-0.13-0.58c-0.1-0.34-0.33-0.6-0.69-0.63
				c-1.53-0.1-3.05-0.21-4.58-0.24c-0.81-0.02-1.2,0.32-1.37,1.17c-0.14,0.71-0.17,1.45-0.23,2.18c-0.48,6.19-0.03,12.38,0.01,18.57
				c0,0.2,0.01,0.4,0.03,0.6c0.1,0.98,0.47,1.48,1.45,1.62c1.58,0.23,3.19,0.18,4.78,0.09c0.47-0.03,0.71-0.35,0.74-0.79
				c0.06-0.86,0.18-1.73,0.12-2.59c-0.22-2.93,0.08-5.85,0.18-8.78c0.04-1.22,0.38-2.37,0.87-3.47c0.38-0.85,0.84-1.67,1.78-2.05
				C62.39,57.56,62.57,57.73,62.76,57.89z"/>
			<path class="st7" d="M46.76,50.36c1.52,0.34,1.65,0.41,1.78,1.66c0.11,1.12,0.17,2.26,0.17,3.39c0.04,5.65,0.05,11.31,0.07,16.96
				c0,0.53-0.02,1.06-0.03,1.6c-0.03,1.23-0.71,2.01-1.84,2.31c-1.68,0.46-3.42,0.46-5.14,0.27c-1.03-0.11-1.68-0.75-1.77-1.84
				c-0.04-0.46-0.09-0.93-0.1-1.39c-0.11-5.58-0.2-11.17-0.32-16.75c-0.03-1.54,0.09-3.05,0.32-4.57c0.15-0.97,0.54-1.43,1.47-1.61
				c0.72-0.14,1.45-0.15,2.18-0.02c0.13,0.22,0.26,0.44,0.39,0.66c-0.6,0.04-1.19,0.07-1.79,0.11c-0.71,0.04-0.9,0.21-1.04,0.94
				c-0.21,1.12-0.19,2.26-0.13,3.39c0.26,5.26,0.45,10.52,0.28,15.78c-0.04,1.13,0.11,2.26,0.19,3.39c0.04,0.55,0.39,0.83,0.91,0.88
				c0.4,0.04,0.81,0.08,1.19,0.02c1.17-0.19,2.39,0.32,3.52-0.31c0.35-1.16,0.34-2.37,0.35-3.56c0.04-3.73,0.02-7.46,0.03-11.19
				c0.01-2.33,0.01-4.66,0.03-7c0.01-0.89-0.06-1.74-0.74-2.4C46.76,50.84,46.76,50.6,46.76,50.36z"/>
			<path class="st8" d="M49.67,42.88c0.1,1.38-0.25,2.63-1.14,3.71c-1.74,2.1-5.71,2.51-7.79,0.75c-1.76-1.49-2.37-3.58-1.41-6.34
				c0.57-1.64,1.71-2.66,3.47-2.88c0.79-0.1,1.58-0.22,2.37-0.2c2.55,0.06,4.21,1.65,4.44,4.18C49.65,42.35,49.66,42.61,49.67,42.88
				z M48.47,43.59c0.02-2.28-2.04-4.6-4.11-4.63c-2.26-0.03-4.07,1.72-4.1,3.99c-0.04,2.55,1.83,4.53,4.28,4.55
				C46.72,47.5,48.45,45.79,48.47,43.59z"/>
			<path class="st8" d="M46.76,50.36c0,0.24,0,0.47,0,0.71c-0.94-0.02-1.87-0.03-2.81-0.05c-0.13-0.22-0.26-0.44-0.39-0.66
				C44.62,50.24,45.69,50.22,46.76,50.36z"/>
			<path class="st8" d="M62.76,57.89c-0.18-0.16-0.36-0.32-0.55-0.49c0.35-0.42,0.81-0.63,1.35-0.63c0.02,0.19,0.03,0.37,0.05,0.56
				C63.32,57.51,63.04,57.7,62.76,57.89z"/>
		</g>
	</g>
</g>
</svg>
