<?xml version="1.0" encoding="utf-8"?>
<!-- Generator: Adobe Illustrator 24.1.0, SVG Export Plug-In . SVG Version: 6.00 Build 0)  -->
<svg version="1.1" id="Layer_1" xmlns="http://www.w3.org/2000/svg" xmlns:xlink="http://www.w3.org/1999/xlink" x="0px" y="0px"
	 viewBox="0 0 118.6 117.93" style="enable-background:new 0 0 118.6 117.93;" xml:space="preserve">
<style type="text/css">
	.st0{opacity:0.1;fill:#23B6E8;}
	.st1{opacity:0.38;}
	.st2{fill:#70B7E5;}
	.st3{fill:#7AA7D9;}
	.st4{fill:#B7E0F7;}
	.st5{fill:#88B3DF;}
	.st6{fill:#88B2DF;}
	.st7{fill:#96BEE5;}
	.st8{fill:#9EC4E8;}
	.st9{fill:#9EC3E8;}
	.st10{fill:#B5DFF7;}
	.st11{fill:#B4DEF7;}
	.st12{fill:#325A70;}
	.st13{fill:#FFFFFF;}
</style>
<g>
	<path class="st0" d="M94.63,106.88H23.26c-6.6,0-12-5.4-12-12V23.5c0-6.6,5.4-12,12-12h71.37c6.6,0,12,5.4,12,12v71.37
		C106.63,101.48,101.23,106.88,94.63,106.88z"/>
	<g>
		<g class="st1">
			<path class="st2" d="M83.26,44.66c-0.37-0.05-0.76,0.13-1.14,0.21c0.04,0.35-0.13,0.62-0.29,0.91c-0.74,1.3-1.79,2.33-2.91,3.27
				c-0.89,0.76-1.31,1.62-1.2,2.79c0.06,0.59,0,1.2,0,1.8c0.01,2.55-0.52,5.02-1.26,7.45c-0.36,1.18-0.95,2.18-1.81,3.05
				c-0.47,0.47-0.9,0.99-1.27,1.53c-1.9,2.77-4.22,5.15-6.92,7.14c-4.79,3.54-10.16,5.47-16.12,5.71c-0.67,0.03-1.32,0.05-1.97,0.25
				c-0.91,0.29-1.87,0.3-2.77,0.04c-2.87-0.83-5.82-1.45-8.57-2.65c-0.36-0.16-0.74-0.29-1.12-0.4c-0.1-0.03-0.28,0.05-0.34,0.14
				c-0.06,0.08-0.06,0.27-0.01,0.36c0.55,0.87,1.34,1.45,2.24,1.93c3.07,1.65,6.32,2.83,9.71,3.6c1.55,0.35,3.13,0.57,4.75,0.56
				c2.07-0.02,4.11-0.31,6.13-0.75c2.94-0.63,5.8-1.55,8.48-2.91c2.98-1.51,5.57-3.55,7.75-6.17c2.95-3.56,5.05-7.48,6.02-12
				c0.43-2.03,0.76-4.05,0.35-6.13c-0.15-0.78-0.08-1.59-0.14-2.39c-0.04-0.57,0.15-1.04,0.55-1.44c0.66-0.66,1.31-1.33,1.96-1.99
				c0.51-0.53,0.96-1.08,1.18-1.82C84.9,45.52,84.53,44.82,83.26,44.66z"/>
			<path class="st2" d="M82.31,43.63c0.46-0.56,0.96-1.1,1.14-1.83c0.18-0.72-0.23-1.37-1.05-1.65c-0.48-0.16-0.7,0.02-1.07,0.79
				c-0.26,0.53-0.55,1.06-0.89,1.53c-0.42,0.59-0.92,1.12-1.38,1.69c-0.24,0.29-0.67,0.56-0.43,1c0.31,0.56,0.82,0.25,1.24,0.14
				c0.51-0.14,1.01-0.32,1.5-0.49c0.25-0.09,0.49-0.09,0.72,0.05C81.79,44.37,82.02,43.98,82.31,43.63z"/>
			<path class="st2" d="M82.09,44.84c0.01,0.01,0.01,0.02,0.01,0.03c0.01,0,0.01,0,0.02,0c0,0,0-0.01,0-0.01
				C82.11,44.85,82.1,44.85,82.09,44.84z"/>
		</g>
		<g>
			<path class="st3" d="M64.92,40.5c2.43-0.88,4.73-0.27,6.98,0.67c0.86,0.36,1.66,0.85,2.45,1.33c0.5,0.3,0.95,0.35,1.51,0.15
				c1.62-0.6,3.33-0.97,4.77-2c0.22-0.16,0.51-0.27,0.72-0.03c0.21,0.24,0.02,0.51-0.11,0.72c-0.51,0.86-1.05,1.7-1.77,2.4
				c-0.28,0.28-0.54,0.59-0.79,0.9c-0.16,0.21,0.01,0.58,0.26,0.61c0.54,0.07,1.06-0.01,1.57-0.2c0.55-0.2,1.1-0.36,1.85-0.6
				c-0.28,1.15-0.78,1.9-1.41,2.57c-0.78,0.82-1.57,1.63-2.41,2.39c-0.6,0.54-0.86,1.13-0.82,1.93c0.09,1.94-0.11,3.86-0.57,5.74
				c-0.97,4.01-2.74,7.6-5.39,10.8c-3.72,4.5-8.4,7.52-13.88,9.37c-3.13,1.06-6.35,1.32-9.64,1.3c-3.31-0.01-6.48-0.59-9.58-1.7
				c-0.81-0.29-1.61-0.64-2.4-0.99c-0.14-0.06-0.21-0.28-0.31-0.42c0.18-0.07,0.35-0.15,0.53-0.21c0.13-0.04,0.26-0.03,0.4-0.04
				c0.38-0.24,0.87-0.02,1.25-0.28c0.12-0.01,0.24-0.01,0.35-0.02c4.31,1.55,8.23,0.2,12.05-1.7c0.97-0.48,1.45-1.55,0.53-2.29
				c-2.88-2.31-5.65-4.84-9.35-5.84c-0.43,0.02-0.79,0.48-1.27,0.23c-0.46-0.3-0.7-0.77-0.91-1.26c-0.17-0.39-0.04-0.66,0.33-0.73
				c0.55-0.12,1.38,0.24,1.62-0.33c0.32-0.74-0.59-1.04-1.01-1.49c-0.35-0.38-0.77-0.71-1.16-1.06c-0.12-0.37,0.11-0.5,0.41-0.58
				c0.91,0.02,1.5,0.85,2.74,1.03c-1.81-1.56-2.84-3.51-4.95-4.28c-0.35-0.01-0.71,0.07-1.02-0.16c-0.23-0.61-0.49-1.22-0.67-1.85
				c-0.14-0.47,0.36-0.94,0.83-0.79c0.31,0.1,0.61,0.24,0.91,0.39c0.35,0.18,0.69,0.39,1.05,0.56c0.28,0.13,0.6,0.4,0.9,0.18
				c0.34-0.25,0.1-0.59-0.01-0.89c-0.09-0.25-0.16-0.5-0.24-0.75c-0.17-0.39,0.06-0.51,0.38-0.57c0.89,0.24,1.34,1.03,2.29,1.82
				c-1.26-3.39-2.99-6.25-3.76-9.46c-0.14-0.58-0.68-0.76-1.19-0.94c-0.39-0.42-0.33-0.87-0.11-1.33c0.57-0.73,1.19-0.46,1.74-0.03
				c0.84,0.66,1.65,1.35,2.41,2.09c1.11,1.08,2.36,1.95,3.68,2.73c2.76,1.63,5.67,2.95,8.85,3.5c1.23,0.21,2.51,0.46,3.69-0.28
				c0.28-0.22,0.47-0.58,0.88-0.6c0.86-0.06,1.24-0.7,1.6-1.34c1.54-2.74,3.17-5.39,5.74-7.32c0.11-0.08,0.04-0.25-0.11-0.34
				C65.12,41.05,64.78,40.91,64.92,40.5z"/>
			<path class="st4" d="M41.34,64.48c0.76-0.11,1.44,0.09,2.1,0.46c2.61,1.48,4.98,3.32,7.46,4.99c0.27,0.18,0.51,0.44,0.72,0.69
				c0.78,0.9,0.69,2.12-0.31,2.77c-0.83,0.54-1.73,1.03-2.67,1.34c-2.59,0.86-5.21,1.55-8.01,1.34c-0.96-0.07-1.67-0.32-2.15-1.16
				c0.68-0.14,1.31-0.57,2.05-0.42c2.7,0.12,4.93-1.05,7.07-2.51c0.8-0.54,0.65-0.96-0.09-1.47c-1.79-1.24-3.76-2.23-5.39-3.7
				C41.44,66.19,40.69,65.56,41.34,64.48z"/>
			<path class="st5" d="M41.34,64.48c-0.09,0.64,0.14,1.15,0.58,1.62c0.92,0.98,1.99,1.75,3.13,2.44c1.36,0.81,2.69,1.67,4.11,2.55
				c-0.77,0.97-1.75,1.55-2.68,2.15c-1.24,0.8-2.67,1.19-4.08,1.54c-0.6,0.15-1.33,0.33-1.86-0.29c0.24-0.03,0.48-0.07,0.72-0.1
				c0.16-0.08,0.32-0.17,0.47-0.27c1.9-0.42,3.61-1.28,5.31-2.19c0.69-0.37,0.71-0.74,0.11-1.16c-0.71-0.49-1.45-0.94-2.15-1.43
				c-0.98-0.68-1.93-1.39-2.9-2.08c-0.72-0.51-1.27-1.16-1.65-1.95C40.74,65.03,41.04,64.75,41.34,64.48z"/>
			<path class="st6" d="M64.92,40.5c0.18,0.31,0.49,0.35,0.81,0.38c0.04,0.3-0.07,0.54-0.34,0.63c-3.93,1.32-5.94,4.24-6.82,8.12
				c-0.07,0.33-0.2,0.63-0.48,0.84c-0.28,0.12-0.56,0.25-0.84,0.37c0.21-1.16,0.31-2.36,0.64-3.49c0.89-3.07,2.75-5.34,5.78-6.55
				c0.16-0.09,0.31-0.18,0.46-0.28C64.4,40.52,64.66,40.51,64.92,40.5z"/>
			<path class="st7" d="M39.7,52.87c-0.15,0.15-0.29,0.29-0.44,0.44c-1.05-1.45-1.71-3.05-1.99-4.82c-0.18-0.26-0.17-0.53-0.06-0.81
				c0.18-0.1,0.35-0.1,0.53,0C38.37,49.42,39.71,50.89,39.7,52.87z"/>
			<path class="st8" d="M36.51,56.46c0.26-0.13,0.53-0.27,0.79-0.4c0.71,1.39,2.06,2.4,2.4,4.01c-0.13,0.13-0.25,0.25-0.38,0.38
				C37.89,59.47,36.96,58.13,36.51,56.46z"/>
			<path class="st9" d="M36.88,42.83c0.08,0.44-0.06,0.94,0.43,1.24c0.82,1.2,0.83,2.4,0,3.6l0,0c-0.13,0.18-0.25,0.18-0.37-0.01
				c-0.18-1.24-0.59-2.45-0.43-3.73C36.56,43.53,36.55,43.13,36.88,42.83z"/>
			<path class="st4" d="M38.13,74.93c-0.35,0.38-0.79,0.36-1.25,0.28C37.24,74.81,37.68,74.85,38.13,74.93z"/>
			<path class="st10" d="M36.94,47.66c0.12,0.01,0.25,0.01,0.37,0.01c-0.01,0.28-0.02,0.55-0.04,0.83
				C36.99,48.28,36.9,47.99,36.94,47.66z"/>
			<path class="st10" d="M64.13,40.53c-0.15,0.09-0.31,0.18-0.46,0.28C63.83,40.72,63.98,40.63,64.13,40.53z"/>
			<path class="st4" d="M41.73,74.13c-0.11,0.17-0.26,0.28-0.47,0.27C41.37,74.22,41.52,74.11,41.73,74.13z"/>
			<path class="st10" d="M58.08,50.47c0.07-2.63,1.08-4.85,2.91-6.71c0.37-0.38,0.76-0.74,1.12-1.12c0.8-0.84,1.73-1.41,2.94-1.42
				c0.23,0,0.45-0.22,0.68-0.34c0.13,0.02,0.28,0.01,0.39,0.06c0.17,0.08,0.37,0.17,0.47,0.32c0.15,0.22-0.05,0.37-0.23,0.45
				c-1,0.43-1.71,1.22-2.48,1.94c-1.59,1.47-2.43,3.44-3.57,5.21c-0.36,0.55-0.68,1.14-1.08,1.66
				C58.87,50.98,58.45,50.95,58.08,50.47z"/>
			<path class="st10" d="M37.31,47.67c0-1.2,0-2.4,0-3.6c0.24-0.3,0.54-0.4,0.84-0.11c0.43,0.43,0.63,1,0.76,1.59
				c0.41,1.82,1.06,3.54,1.92,5.2c0.57,1.12,1.03,2.29,1.53,3.44c0.08,0.18,0.13,0.38,0.14,0.57c0,0.19-0.07,0.38-0.11,0.57
				c-0.18-0.04-0.41-0.02-0.53-0.13c-0.77-0.73-1.56-1.44-2.15-2.33c-0.29-0.6-0.54-1.23-0.89-1.78
				C38.13,50.02,37.93,48.75,37.31,47.67z"/>
			<path class="st11" d="M39.71,60.07c-0.55-0.63-1.12-1.23-1.64-1.88c-0.5-0.61-0.82-1.31-0.76-2.13c0.54-0.05,1.04,0.03,1.45,0.44
				c1.29,1.31,2.59,2.61,3.87,3.93c0.13,0.14,0.24,0.32,0.3,0.5c0.06,0.17,0.13,0.42,0.05,0.53c-0.08,0.11-0.37,0.16-0.52,0.11
				C41.44,61.26,40.58,60.65,39.71,60.07z"/>
		</g>
		<g>
			<path class="st12" d="M39.92,62.27c-1.73-1.31-2.88-2.94-3.9-4.67c-0.48-0.81-0.8-1.69-0.97-2.61c-0.18-0.98,0.42-1.68,1.41-1.76
				c0.46-0.03,0.89,0.28,1.42,0.05c0.16-0.53-0.2-0.99-0.38-1.45c-0.82-2.05-1.44-4.15-1.63-6.36c-0.07-0.8-0.11-1.59,0.13-2.38
				c0.14-0.46,0.33-0.87,0.68-1.2c0.49-0.47,1.09-0.61,1.63-0.24c0.66,0.45,1.27,0.97,1.85,1.51c3.03,2.79,6.54,4.79,10.37,6.26
				c1.69,0.65,3.46,0.98,5.26,1.12c0.78,0.06,0.89-0.04,1-0.86c0.04-0.26,0.05-0.53,0.08-0.8c0.31-2.7,1.52-4.97,3.46-6.8
				c2.81-2.65,6.16-3.28,9.83-2.32c1.16,0.3,2.28,0.78,3.24,1.51c0.94,0.72,1.88,0.77,2.99,0.46c1.42-0.4,2.77-0.93,4.07-1.62
				c0.38-0.2,0.77-0.6,1.28-0.28c0.41,0.26,0.46,0.83,0.07,1.64c-0.26,0.54-0.6,1.03-0.9,1.55c-0.13,0.23-0.25,0.46-0.36,0.7
				c-0.08,0.18,0.25,0.61,0.43,0.55c0.51-0.16,1-0.36,1.51-0.51c0.34-0.1,0.81,0.36,0.78,0.72c-0.05,0.55-0.34,1-0.63,1.45
				c-0.98,1.54-2.21,2.84-3.71,3.87c-0.58,0.4-0.72,0.86-0.69,1.52c0.29,8.62-3.26,15.53-9.68,20.99
				c-6.08,5.17-13.22,7.6-21.21,7.36c-4.13-0.12-8-1.27-11.61-3.3c-0.57-0.32-1.19-0.61-1.48-1.28c-0.11-0.26-0.01-0.58,0.26-0.61
				c1.39-0.15,2.79-0.24,4.17-0.44c2.12-0.31,4.16-0.91,6.14-1.72c0.49-0.2,0.96-0.46,1.41-0.74c0.29-0.18,0.21-0.46-0.04-0.63
				c-0.38-0.26-0.79-0.49-1.19-0.72c-1.8-1.05-3.4-2.35-4.77-3.91c-0.31-0.35-0.61-0.71-0.87-1.09
				C38.52,63.99,38.6,63.48,39.92,62.27z M80.38,41.13c-1.36,0.53-2.75,1.01-4.08,1.59c-0.91,0.4-1.65,0.24-2.42-0.3
				c-1.15-0.82-2.43-1.4-3.8-1.73c-3.46-0.85-6.62-0.34-9.28,2.19c-1.43,1.36-2.44,2.98-2.83,4.95c-0.17,0.85-0.34,1.7-0.55,2.54
				c-0.19,0.79-0.4,0.96-1.23,1.04c-0.4,0.04-0.8,0.03-1.2,0.01c-1.54-0.07-3.03-0.37-4.49-0.9c-4.05-1.47-7.77-3.49-10.83-6.59
				c-0.37-0.38-0.8-0.71-1.23-1.01c-0.97-0.67-1.48-0.45-1.6,0.68c-0.12,1.14-0.06,2.28,0.19,3.38c0.42,1.82,0.91,3.61,1.81,5.27
				c0.38,0.7,0.67,1.45,1,2.17c0.12,0.27,0.09,0.53-0.14,0.71c-0.22,0.18-0.49,0.18-0.74,0.05c-0.42-0.21-0.82-0.45-1.23-0.66
				c-0.46-0.24-1.01-0.74-1.45-0.4c-0.56,0.43-0.14,1.11,0.06,1.64c0.72,1.9,1.84,3.54,3.39,4.87c0.66,0.56,1.32,1.12,1.93,1.73
				c0.47,0.47,0.24,1.03-0.44,1.13c-0.26,0.04-0.53,0.01-0.8,0.02c-0.67,0.04-0.85,0.32-0.53,0.83c0.96,1.55,2.22,2.83,3.71,3.86
				c0.93,0.64,1.9,1.22,2.85,1.84c0.45,0.29,0.9,0.58,1.31,0.91c0.23,0.18,0.24,0.49,0,0.68c-0.31,0.25-0.66,0.45-1,0.65
				c-2.88,1.63-6,2.52-9.26,2.95c-0.26,0.03-0.53,0.07-0.78,0.15c-0.04,0.01-0.06,0.31-0.01,0.33c0.46,0.26,0.91,0.54,1.4,0.73
				c8.61,3.23,17.07,2.8,25.05-1.73c9.02-5.12,14.26-12.82,14.42-23.49c0.01-0.89,0.3-1.5,0.95-2.07c0.8-0.7,1.55-1.46,2.27-2.25
				c0.38-0.43,1.03-0.95,0.75-1.52c-0.35-0.72-1.04-0.03-1.59-0.03c-0.45,0-0.89,0.3-1.35,0.02c-0.25-0.15-0.44-0.36-0.27-0.63
				c0.22-0.33,0.51-0.61,0.77-0.91c0.66-0.74,1.41-1.42,1.73-2.41c0.04-0.16,0.17-0.4,0.12-0.46
				C80.74,40.78,80.54,40.94,80.38,41.13z M80.31,44.06c-0.04,0.04-0.13,0.1-0.12,0.13c0.02,0.09,0.08,0.18,0.12,0.27
				c0.04-0.04,0.13-0.1,0.13-0.13C80.41,44.24,80.35,44.15,80.31,44.06z M81.79,44.96c-0.02,0.04-0.08,0.1-0.07,0.13
				c0.02,0.05,0.09,0.14,0.11,0.14c0.16-0.07,0.19-0.16,0.08-0.25C81.89,44.95,81.84,44.96,81.79,44.96z"/>
			<path class="st13" d="M80.31,44.06c0.04,0.09,0.1,0.17,0.12,0.27c0.01,0.03-0.08,0.09-0.13,0.13c-0.04-0.09-0.1-0.17-0.12-0.27
				C80.18,44.16,80.26,44.11,80.31,44.06z"/>
		</g>
	</g>
</g>
</svg>
